<svg width="24" height="24" viewBox="0 0 24 24" fill="none" xmlns="http://www.w3.org/2000/svg">
<path fill-rule="evenodd" clip-rule="evenodd" d="M20.6829 10.9239C20.5699 11.5519 20.0129 12.0129 19.3529 12.0009H17.6829V3.00088H19.3709C20.0129 2.95188 20.5689 3.44788 20.6829 4.07688V10.9239ZM15.6829 12.7879L12.0749 20.9059C11.2679 20.6479 10.6829 19.8909 10.6829 19.0009V15.0009C10.6829 14.4479 10.2349 14.0009 9.68294 14.0009H4.01394C3.96794 13.9979 3.90694 13.9989 3.84994 13.9899C3.30494 13.9069 2.92894 13.3959 3.01094 12.8519L4.39194 3.85088C4.46594 3.36088 4.91794 3.02188 5.40294 3.00088H15.6829V12.7879ZM22.6739 3.86588C22.4519 2.22288 21.0469 0.999878 19.4109 0.999878C19.3919 0.999878 19.3719 0.999878 19.3529 1.00088H5.41394C3.92694 1.01088 2.63694 2.08088 2.41494 3.54888L1.03394 12.5509C0.786937 14.1859 1.91494 15.7179 3.54694 15.9659C3.70694 15.9909 3.86994 16.0029 4.02294 16.0009H8.68294V19.0009C8.68294 21.2069 10.4769 23.0009 12.6829 23.0009C13.0789 23.0009 13.4359 22.7679 13.5969 22.4069L17.3319 14.0009H19.3349C21.0049 14.0059 22.4489 12.7979 22.6739 11.1349C22.6799 11.0909 22.6829 11.0459 22.6829 11.0009V4.00088C22.6829 3.95588 22.6799 3.91088 22.6739 3.86588Z" fill="#313037"/>
</svg>
